<svg width="20" height="18" viewBox="0 0 20 18" fill="none" xmlns="http://www.w3.org/2000/svg">
<g id="fluent:eye-20-filled">
<g id="Group">
<path id="Vector" d="M3.02504 10.602C3.73081 7.32701 6.6812 5.00001 10 5.00001C13.3178 5.00001 16.2682 7.32701 16.975 10.602C17.003 10.732 17.0832 10.8458 17.1981 10.9186C17.313 10.9914 17.4531 11.0171 17.5876 10.99C17.7221 10.963 17.8399 10.8854 17.9152 10.7744C17.9905 10.6633 18.0171 10.528 17.9891 10.398C17.185 6.67301 13.8217 4.00001 10 4.00001C6.17826 4.00001 2.81496 6.67301 2.01087 10.398C1.98288 10.528 2.00945 10.6633 2.08475 10.7744C2.16005 10.8854 2.27791 10.963 2.4124 10.99C2.54688 11.0171 2.68698 10.9914 2.80188 10.9186C2.91677 10.8458 2.99704 10.732 3.02504 10.602ZM9.98965 8.00001C10.9503 8.00001 11.8715 8.36875 12.5508 9.02513C13.2301 9.68151 13.6117 10.5717 13.6117 11.5C13.6117 12.4283 13.2301 13.3185 12.5508 13.9749C11.8715 14.6313 10.9503 15 9.98965 15C9.02903 15 8.10776 14.6313 7.4285 13.9749C6.74924 13.3185 6.36764 12.4283 6.36764 11.5C6.36764 10.5717 6.74924 9.68151 7.4285 9.02513C8.10776 8.36875 9.02903 8.00001 9.98965 8.00001Z" fill="#888888"/>
</g>
</g>
</svg>
