<svg width="24" height="24" viewBox="0 0 24 24" fill="none" xmlns="http://www.w3.org/2000/svg">
<g id="More vert" clip-path="url(#clip0_70_900)">
<path id="Vector" d="M12 16.25C12.9619 16.25 13.75 17.0381 13.75 18C13.75 18.9619 12.9619 19.75 12 19.75C11.0381 19.75 10.25 18.9619 10.25 18C10.25 17.0381 11.0381 16.25 12 16.25ZM12 10.25C12.9619 10.25 13.75 11.0381 13.75 12C13.75 12.9619 12.9619 13.75 12 13.75C11.0381 13.75 10.25 12.9619 10.25 12C10.25 11.0381 11.0381 10.25 12 10.25ZM12 4.25C12.9619 4.25 13.75 5.03807 13.75 6C13.75 6.96193 12.9619 7.75 12 7.75C11.0381 7.75 10.25 6.96193 10.25 6C10.25 5.03807 11.0381 4.25 12 4.25Z" fill="black" stroke="white" stroke-width="0.5"/>
</g>
<defs>
<clipPath id="clip0_70_900">
<rect width="24" height="24" fill="white"/>
</clipPath>
</defs>
</svg>
