<svg width="85" height="14" viewBox="0 0 85 14" fill="none" xmlns="http://www.w3.org/2000/svg">
<g id="Right Side">
<g id="Battery">
<path id="Outline" opacity="0.35" d="M59.2983 0.579102H77.9731C80.0778 0.579102 81.7836 2.28505 81.7837 4.38965V9.61035C81.7836 11.715 80.0778 13.4209 77.9731 13.4209H59.2983C57.1938 13.4208 55.4878 11.7149 55.4878 9.61035V4.38965C55.4878 2.28508 57.1938 0.579153 59.2983 0.579102Z" stroke="#191A1A" stroke-width="1.15789"/>
<path id="Battery End" opacity="0.4" d="M83.4612 5.38461V9.9296C84.3936 9.54467 84.9999 8.6492 84.9999 7.65711C84.9999 6.66501 84.3936 5.76955 83.4612 5.38461" fill="#191A1A"/>
<path id="Fill" d="M57.105 4.34874C57.105 3.13655 58.0877 2.15387 59.2999 2.15387H77.9718C79.184 2.15387 80.1666 3.13655 80.1666 4.34874V9.65131C80.1666 10.8635 79.184 11.8462 77.9718 11.8462H59.2999C58.0877 11.8462 57.105 10.8635 57.105 9.65131V4.34874Z" fill="#191A1A"/>
</g>
<path id="Wifi" fill-rule="evenodd" clip-rule="evenodd" d="M37.8875 3.8635C40.5962 3.86362 43.2013 4.90545 45.1644 6.77366C45.3123 6.9179 45.5486 6.91608 45.6941 6.76958L47.1072 5.34203C47.181 5.26773 47.2221 5.16709 47.2215 5.06237C47.2208 4.95766 47.1786 4.8575 47.104 4.78407C41.9514 -0.158776 33.8227 -0.158776 28.6702 4.78407C28.5955 4.85745 28.5532 4.95757 28.5525 5.06229C28.5518 5.16701 28.5928 5.26768 28.6665 5.34203L30.08 6.76958C30.2255 6.9163 30.462 6.91812 30.6097 6.77366C32.5731 4.90533 35.1785 3.8635 37.8875 3.8635ZM37.9264 8.26253C39.4147 8.26243 40.8498 8.81616 41.953 9.81611C42.1022 9.95802 42.3372 9.95495 42.4827 9.80917L43.8942 8.38162C43.9685 8.30675 44.0097 8.20517 44.0087 8.09961C44.0076 7.99406 43.9643 7.89334 43.8885 7.81999C40.529 4.69196 35.3266 4.69196 31.9672 7.81999C31.8913 7.89334 31.848 7.99411 31.847 8.09969C31.846 8.20528 31.8874 8.30685 31.9619 8.38162L33.3729 9.80917C33.5184 9.95495 33.7534 9.95802 33.9027 9.81611C35.0051 8.81682 36.4391 8.26314 37.9264 8.26253ZM40.7966 11.1383C40.7988 11.2441 40.7572 11.3462 40.6817 11.4203L38.2402 13.8867C38.1686 13.9592 38.071 14 37.9692 14C37.8674 14 37.7698 13.9592 37.6982 13.8867L35.2563 11.4203C35.1808 11.3461 35.1393 11.244 35.1416 11.1382C35.1438 11.0323 35.1896 10.9321 35.2681 10.8611C36.8274 9.541 39.111 9.541 40.6703 10.8611C40.7487 10.9321 40.7944 11.0324 40.7966 11.1383Z" fill="#191A1A"/>
<g id="Icon / Mobile Signal">
<path d="M10.9817 4.3077C10.9817 3.71294 11.4734 3.23078 12.0799 3.23078H13.1781C13.7846 3.23078 14.2763 3.71294 14.2763 4.3077V12.9231C14.2763 13.5179 13.7846 14 13.1781 14H12.0799C11.4734 14 10.9817 13.5179 10.9817 12.9231V4.3077Z" fill="#191A1A"/>
<path d="M16.4726 2.15386C16.4726 1.55909 16.9643 1.07693 17.5708 1.07693H18.669C19.2755 1.07693 19.7671 1.55909 19.7671 2.15386V12.9231C19.7671 13.5179 19.2755 14 18.669 14H17.5708C16.9643 14 16.4726 13.5179 16.4726 12.9231V2.15386Z" fill="#191A1A"/>
<path d="M5.49087 8.07693C5.49087 7.48217 5.98254 7.00001 6.58905 7.00001H7.68722C8.29373 7.00001 8.7854 7.48217 8.7854 8.07693V12.9231C8.7854 13.5179 8.29373 14 7.68722 14H6.58905C5.98254 14 5.49087 13.5179 5.49087 12.9231V8.07693Z" fill="#191A1A"/>
<path d="M0 10.7692C0 10.1745 0.49167 9.69232 1.09817 9.69232H2.19635C2.80285 9.69232 3.29452 10.1745 3.29452 10.7692V12.9231C3.29452 13.5179 2.80285 14 2.19635 14H1.09817C0.491669 14 0 13.5179 0 12.9231V10.7692Z" fill="#191A1A"/>
</g>
</g>
</svg>
